<svg width="74" height="54" viewBox="0 0 74 54" fill="none" xmlns="http://www.w3.org/2000/svg">
<path d="M0.333008 53.6667V44.3333C0.333008 42.4445 0.819674 40.7078 1.79301 39.1233C2.76634 37.5389 4.05745 36.3311 5.66634 35.5C9.11079 33.7778 12.6108 32.4856 16.1663 31.6233C19.7219 30.7611 23.333 30.3311 26.9997 30.3333C30.6663 30.3333 34.2775 30.7644 37.833 31.6267C41.3886 32.4889 44.8886 33.78 48.333 35.5C49.9441 36.3333 51.2363 37.5422 52.2097 39.1267C53.183 40.7111 53.6686 42.4467 53.6663 44.3333V53.6667H0.333008ZM60.333 53.6667V43.6667C60.333 41.2222 59.6519 38.8744 58.2897 36.6233C56.9275 34.3722 54.9975 32.4422 52.4997 30.8333C55.333 31.1667 57.9997 31.7367 60.4997 32.5433C62.9997 33.35 65.333 34.3356 67.4997 35.5C69.4997 36.6111 71.0275 37.8467 72.083 39.2067C73.1386 40.5667 73.6663 42.0533 73.6663 43.6667V53.6667H60.333ZM26.9997 27C23.333 27 20.1941 25.6944 17.583 23.0833C14.9719 20.4722 13.6663 17.3333 13.6663 13.6667C13.6663 10 14.9719 6.86112 17.583 4.25C20.1941 1.63889 23.333 0.333337 26.9997 0.333337C30.6663 0.333337 33.8052 1.63889 36.4163 4.25C39.0275 6.86112 40.333 10 40.333 13.6667C40.333 17.3333 39.0275 20.4722 36.4163 23.0833C33.8052 25.6944 30.6663 27 26.9997 27ZM60.333 13.6667C60.333 17.3333 59.0275 20.4722 56.4163 23.0833C53.8052 25.6944 50.6663 27 46.9997 27C46.3886 27 45.6108 26.93 44.6663 26.79C43.7219 26.65 42.9441 26.4978 42.333 26.3333C43.833 24.5556 44.9863 22.5833 45.793 20.4167C46.5997 18.25 47.0019 16 46.9997 13.6667C46.9997 11.3333 46.5975 9.08334 45.793 6.91667C44.9886 4.75 43.8352 2.77778 42.333 1C43.1108 0.722226 43.8886 0.541116 44.6663 0.456671C45.4441 0.372227 46.2219 0.331115 46.9997 0.333337C50.6663 0.333337 53.8052 1.63889 56.4163 4.25C59.0275 6.86112 60.333 10 60.333 13.6667Z" fill="#F23849"/>
</svg>
