<svg width="76" height="60" viewBox="0 0 76 60" fill="none" xmlns="http://www.w3.org/2000/svg">
<path d="M0.301758 13.3234C10.9654 4.68446 24.2779 -0.0202367 38.0018 6.5433e-05C52.2851 6.5433e-05 65.4018 4.99007 75.7018 13.3234L69.4184 21.1001C60.5317 13.9018 49.438 9.98223 38.0018 10.0001C26.1018 10.0001 15.1684 14.1601 6.58509 21.1001L0.301758 13.3234ZM10.7718 26.2901C18.4738 20.0501 28.0892 16.6519 38.0018 16.6667C48.3151 16.6667 57.7884 20.2701 65.2318 26.2867L58.9484 34.0667C53.0234 29.2674 45.6267 26.6543 38.0018 26.6667C30.0684 26.6667 22.7818 29.4401 17.0551 34.0667L10.7718 26.2867V26.2901ZM21.2451 39.2567C25.9846 35.4164 31.9017 33.3247 38.0018 33.3334C44.3484 33.3334 50.1784 35.5501 54.7584 39.2534L48.4751 47.0334C45.5124 44.634 41.8142 43.3275 38.0018 43.3334C34.1894 43.3275 30.4911 44.634 27.5284 47.0334L21.2451 39.2534V39.2567ZM31.7184 52.2234C33.4953 50.7825 35.7141 49.9973 38.0018 50.0001C40.3818 50.0001 42.5684 50.8334 44.2851 52.2201L38.0018 60.0001L31.7184 52.2234Z" fill="#F23849"/>
</svg>
