<svg width="54" height="71" viewBox="0 0 54 71" fill="none" xmlns="http://www.w3.org/2000/svg">
<path d="M6.99968 70.3333C5.16635 70.3333 3.59635 69.6799 2.28968 68.3733C0.983013 67.0666 0.330791 65.4977 0.333013 63.6666V30.3333C0.333013 28.4999 0.986346 26.9299 2.29301 25.6233C3.59968 24.3166 5.16857 23.6644 6.99968 23.6666H10.333V16.9999C10.333 12.3888 11.9586 8.4577 15.2097 5.20659C18.4608 1.95548 22.3908 0.331032 26.9997 0.333254C31.6108 0.333254 35.5419 1.95881 38.793 5.20992C42.0441 8.46103 43.6686 12.391 43.6663 16.9999V23.6666H46.9997C48.833 23.6666 50.403 24.3199 51.7097 25.6266C53.0163 26.9333 53.6686 28.5021 53.6663 30.3333V63.6666C53.6663 65.4999 53.013 67.0699 51.7063 68.3766C50.3997 69.6833 48.8308 70.3355 46.9997 70.3333H6.99968ZM26.9997 53.6666C28.833 53.6666 30.403 53.0133 31.7097 51.7066C33.0163 50.3999 33.6686 48.831 33.6663 46.9999C33.6663 45.1666 33.013 43.5966 31.7063 42.2899C30.3997 40.9833 28.8308 40.331 26.9997 40.3333C25.1663 40.3333 23.5963 40.9866 22.2897 42.2933C20.983 43.5999 20.3308 45.1688 20.333 46.9999C20.333 48.8333 20.9863 50.4033 22.293 51.7099C23.5997 53.0166 25.1686 53.6688 26.9997 53.6666ZM16.9997 23.6666H36.9997V16.9999C36.9997 14.2221 36.0275 11.861 34.083 9.91659C32.1386 7.97214 29.7775 6.99992 26.9997 6.99992C24.2219 6.99992 21.8608 7.97214 19.9163 9.91659C17.9719 11.861 16.9997 14.2221 16.9997 16.9999V23.6666Z" fill="#F23849"/>
</svg>
