<svg width="68" height="68" viewBox="0 0 68 68" fill="none" xmlns="http://www.w3.org/2000/svg">
<path d="M30.667 67.3334V53.5001L19.8337 64.1667L15.167 59.5001L30.667 44.0001V37.3334H24.0003L8.50033 52.8334L3.83366 48.1667L14.5003 37.3334H0.666992V30.6667H14.5003L3.83366 19.8334L8.50033 15.1667L24.0003 30.6667H30.667V24.0001L15.167 8.50008L19.8337 3.83341L30.667 14.5001V0.666748H37.3337V14.5001L48.167 3.83341L52.8337 8.50008L37.3337 24.0001V30.6667H44.0003L59.5003 15.1667L64.167 19.8334L53.5003 30.6667H67.3337V37.3334H53.5003L64.167 48.1667L59.5003 52.8334L44.0003 37.3334H37.3337V44.0001L52.8337 59.5001L48.167 64.1667L37.3337 53.5001V67.3334H30.667Z" fill="#F23849"/>
</svg>
